<?xml version="1.0" encoding="UTF-8" standalone="no"?>
<svg
   width="256.42599"
   height="37.367729"
   viewBox="0 0 256.426 37.367729"
   fill="none"
   version="1.1"
   id="svg7"
   sodipodi:docname="logo-desktop.svg"
   inkscape:version="1.4.2 (ebf0e940d0, 2025-05-08)"
   xmlns:inkscape="http://www.inkscape.org/namespaces/inkscape"
   xmlns:sodipodi="http://sodipodi.sourceforge.net/DTD/sodipodi-0.dtd"
   xmlns="http://www.w3.org/2000/svg"
   xmlns:svg="http://www.w3.org/2000/svg">
  <defs
     id="defs7">
    <rect
       x="61.231743"
       y="54.132408"
       width="170.38399"
       height="47.328884"
       id="rect8" />
  </defs>
  <sodipodi:namedview
     id="namedview7"
     pagecolor="#ffffff"
     bordercolor="#000000"
     borderopacity="0.25"
     inkscape:showpageshadow="2"
     inkscape:pageopacity="0.0"
     inkscape:pagecheckerboard="0"
     inkscape:deskcolor="#d1d1d1"
     inkscape:zoom="1.6902998"
     inkscape:cx="46.441466"
     inkscape:cy="-81.346516"
     inkscape:window-width="1920"
     inkscape:window-height="987"
     inkscape:window-x="0"
     inkscape:window-y="0"
     inkscape:window-maximized="1"
     inkscape:current-layer="svg7" />
  <path
     style="font-size:12px;font-family:Sans;-inkscape-font-specification:'Sans, Normal';text-align:center;letter-spacing:0px;word-spacing:0px;text-anchor:middle;white-space:pre;fill:#ffffff;fill-opacity:1;stroke-width:0"
     d="m 63.257053,23.016073 h 1.189453 v 5.314453 c 0,0.9375 0.169922,1.613281 0.509765,2.027344 0.339844,0.410156 0.890625,0.615234 1.652344,0.615234 0.757813,0 1.306641,-0.205078 1.646484,-0.615234 0.339844,-0.414063 0.509766,-1.089844 0.509766,-2.027344 v -5.314453 h 1.189453 v 5.460937 c 0,1.140625 -0.283203,2.001954 -0.849609,2.583985 -0.5625,0.582031 -1.394531,0.873047 -2.496094,0.873047 -1.105469,0 -1.941406,-0.291016 -2.507812,-0.873047 -0.5625,-0.582031 -0.84375,-1.44336 -0.84375,-2.583985 z m 9.914062,7.763672 v 3.480468 H 72.087131 V 25.20162 h 1.083984 v 0.996093 c 0.226563,-0.390625 0.511719,-0.679687 0.855469,-0.867187 0.347656,-0.191406 0.761718,-0.287109 1.242187,-0.287109 0.796875,0 1.44336,0.316406 1.939453,0.949218 0.5,0.632813 0.75,1.464844 0.75,2.496094 0,1.03125 -0.25,1.863281 -0.75,2.496094 -0.496093,0.632813 -1.142578,0.949219 -1.939453,0.949219 -0.480469,0 -0.894531,-0.09375 -1.242187,-0.28125 -0.34375,-0.191407 -0.628906,-0.482422 -0.855469,-0.873047 z m 3.667969,-2.291016 c 0,-0.792969 -0.164063,-1.414062 -0.492188,-1.863281 -0.324219,-0.453125 -0.771484,-0.679688 -1.341797,-0.679688 -0.570312,0 -1.019531,0.226563 -1.347656,0.679688 -0.324219,0.449219 -0.486328,1.070312 -0.486328,1.863281 0,0.792969 0.162109,1.416016 0.486328,1.869141 0.328125,0.449219 0.777344,0.673828 1.347656,0.673828 0.570313,0 1.017578,-0.224609 1.341797,-0.673828 0.328125,-0.453125 0.492188,-1.076172 0.492188,-1.869141 z m 7.628906,-3.035156 v 1.007812 c -0.304687,-0.167969 -0.611328,-0.292969 -0.919922,-0.375 -0.304687,-0.08594 -0.613281,-0.128906 -0.925781,-0.128906 -0.699219,0 -1.242187,0.222656 -1.628906,0.667969 -0.386719,0.441406 -0.580078,1.0625 -0.580078,1.863281 0,0.800781 0.193359,1.423828 0.580078,1.869141 0.386719,0.441406 0.929687,0.662109 1.628906,0.662109 0.3125,0 0.621094,-0.04102 0.925781,-0.123047 0.308594,-0.08594 0.615235,-0.21289 0.919922,-0.380859 v 0.996094 c -0.300781,0.140625 -0.613281,0.246093 -0.9375,0.316406 -0.320313,0.07031 -0.66211,0.105469 -1.025391,0.105469 -0.988281,0 -1.773437,-0.310547 -2.355468,-0.931641 -0.582031,-0.621094 -0.873047,-1.458985 -0.873047,-2.513672 0,-1.070313 0.292969,-1.91211 0.878906,-2.525391 0.589844,-0.613281 1.396485,-0.919921 2.419922,-0.919921 0.332031,0 0.65625,0.03516 0.972656,0.105468 0.316407,0.06641 0.623047,0.167969 0.919922,0.304688 z m 4.417972,0.503906 c -0.578127,0 -1.03516,0.226563 -1.3711,0.679688 -0.335933,0.449219 -0.5039,1.066406 -0.5039,1.851562 0,0.785156 0.166013,1.404297 0.49804,1.857422 0.33594,0.449219 0.794927,0.673828 1.37696,0.673828 0.57422,0 1.029297,-0.226562 1.36523,-0.679687 0.33594,-0.453125 0.50391,-1.070313 0.50391,-1.851563 0,-0.777344 -0.16797,-1.392578 -0.50391,-1.845703 -0.335933,-0.457031 -0.79101,-0.685547 -1.36523,-0.685547 z m 0,-0.914062 c 0.9375,0 1.673827,0.304687 2.20898,0.914062 0.53516,0.609375 0.80274,1.453125 0.80274,2.53125 0,1.074219 -0.26758,1.917969 -0.80274,2.53125 -0.535153,0.609375 -1.27148,0.914063 -2.20898,0.914063 -0.941407,0 -1.67969,-0.304688 -2.21485,-0.914063 -0.531247,-0.613281 -0.79687,-1.457031 -0.79687,-2.53125 0,-1.078125 0.265623,-1.921875 0.79687,-2.53125 0.53516,-0.609375 1.273443,-0.914062 2.21485,-0.914062 z m 9.9082,1.417968 c 0.269533,-0.484375 0.5918,-0.841796 0.9668,-1.072265 0.374998,-0.230469 0.816408,-0.345703 1.324218,-0.345703 0.68359,0 1.21094,0.240234 1.58203,0.720703 0.37109,0.476562 0.55664,1.156249 0.55664,2.039062 v 3.960938 h -1.08399 v -3.925782 c 0,-0.628906 -0.11133,-1.095703 -0.33398,-1.40039 -0.22266,-0.304687 -0.5625,-0.457031 -1.01953,-0.457031 -0.55859,0 -0.999998,0.185547 -1.324218,0.55664 -0.32422,0.371094 -0.48633,0.876953 -0.48633,1.517578 v 3.708985 h -1.08398 v -3.925782 c 0,-0.632812 -0.11133,-1.099609 -0.33399,-1.40039 -0.222653,-0.304687 -0.566403,-0.457031 -1.03125,-0.457031 -0.55078,0 -0.98828,0.1875 -1.3125,0.5625 -0.32422,0.371093 -0.48633,0.874999 -0.48633,1.511718 v 3.708985 h -1.08398 v -6.5625 h 1.08398 v 1.019531 c 0.246093,-0.402344 0.541017,-0.699219 0.88477,-0.890625 0.343747,-0.191406 0.75195,-0.287109 1.22461,-0.287109 0.47656,0 0.880857,0.121094 1.21289,0.363281 0.33594,0.242187 0.583987,0.59375 0.74414,1.054687 z m 6.580078,-1.259765 h 1.07812 v 6.5625 h -1.07812 z m 0,-2.554688 h 1.07812 v 1.365235 h -1.07812 z m 8.78906,5.15625 v 3.960938 h -1.07812 v -3.925782 c 0,-0.621093 -0.1211,-1.085937 -0.36329,-1.394531 -0.24219,-0.308593 -0.60547,-0.46289 -1.08984,-0.46289 -0.58203,0 -1.04102,0.185547 -1.37695,0.55664 -0.33594,0.371094 -0.50391,0.876953 -0.50391,1.517578 v 3.708985 h -1.08398 v -6.5625 h 1.08398 v 1.019531 c 0.25781,-0.394531 0.56055,-0.689453 0.9082,-0.884766 0.35157,-0.195312 0.75587,-0.292968 1.2129,-0.292968 0.7539,0 1.32421,0.234375 1.71093,0.703125 0.38672,0.464843 0.58008,1.15039 0.58008,2.05664 z m 6.46875,0.603516 c 0,-0.78125 -0.16211,-1.386719 -0.48633,-1.816406 -0.32031,-0.429688 -0.77148,-0.644532 -1.35351,-0.644532 -0.57813,0 -1.0293,0.214844 -1.35352,0.644532 -0.32031,0.429687 -0.48047,1.035156 -0.48047,1.816406 0,0.777343 0.16016,1.380859 0.48047,1.810547 0.32422,0.429687 0.77539,0.644531 1.35352,0.644531 0.58203,0 1.0332,-0.214844 1.35351,-0.644531 0.32422,-0.429688 0.48633,-1.033204 0.48633,-1.810547 z m 1.07813,2.542969 c 0,1.117187 -0.24805,1.947265 -0.74415,2.490234 -0.49609,0.546875 -1.25586,0.820312 -2.27929,0.820312 -0.37891,0 -0.73633,-0.0293 -1.07227,-0.08789 -0.33593,-0.05469 -0.6621,-0.140624 -0.97851,-0.257813 v -1.048828 c 0.31641,0.171875 0.62891,0.298829 0.9375,0.38086 0.30859,0.08203 0.62305,0.123046 0.94336,0.123046 0.70703,0 1.23632,-0.185547 1.58789,-0.55664 0.35156,-0.367187 0.52734,-0.923828 0.52734,-1.669922 v -0.533203 c -0.22265,0.386719 -0.50781,0.675781 -0.85547,0.867187 -0.34765,0.191407 -0.76367,0.28711 -1.24805,0.28711 -0.80469,0 -1.45312,-0.306641 -1.94531,-0.919922 -0.49219,-0.613281 -0.73828,-1.425781 -0.73828,-2.4375 0,-1.015625 0.24609,-1.830079 0.73828,-2.44336 0.49219,-0.613281 1.14062,-0.919921 1.94531,-0.919921 0.48438,0 0.9004,0.0957 1.24805,0.287109 0.34766,0.191406 0.63282,0.480468 0.85547,0.867187 V 25.20162 h 1.07813 z m 10.23046,-3.28711 c 0.25391,0.08594 0.5,0.269531 0.73829,0.550781 0.24219,0.28125 0.48437,0.667969 0.72656,1.160157 l 1.20117,2.390625 h -1.27148 l -1.11915,-2.244141 c -0.28906,-0.585937 -0.57031,-0.974609 -0.84375,-1.166016 -0.26953,-0.191406 -0.63867,-0.287109 -1.10742,-0.287109 h -1.28906 v 3.697266 h -1.18359 v -8.748047 h 2.67187 c 1,0 1.74609,0.208984 2.23828,0.626953 0.49219,0.417969 0.73828,1.048828 0.73828,1.892578 0,0.550781 -0.1289,1.007813 -0.38671,1.371094 -0.25391,0.363281 -0.625,0.615234 -1.11329,0.755859 z m -2.96484,-3.673828 v 3.105469 h 1.48828 c 0.57031,0 1,-0.130859 1.28906,-0.392578 0.29297,-0.265625 0.43946,-0.654297 0.43946,-1.166016 0,-0.511719 -0.14649,-0.896484 -0.43946,-1.154297 -0.28906,-0.261719 -0.71875,-0.392578 -1.28906,-0.392578 z m 7.1543,-0.972656 h 5.02734 v 0.996094 h -3.84375 v 2.578125 h 3.46875 v 0.996093 h -3.46875 v 4.177735 h -1.18359 z m 13.45312,0.673828 v 1.248047 c -0.39843,-0.371094 -0.82421,-0.648438 -1.27734,-0.832031 -0.44922,-0.183594 -0.92774,-0.275391 -1.43555,-0.275391 -1,0 -1.76562,0.306641 -2.29687,0.919922 -0.53125,0.609375 -0.79688,1.492187 -0.79688,2.648437 0,1.152344 0.26563,2.035157 0.79688,2.648438 0.53125,0.609375 1.29687,0.914062 2.29687,0.914062 0.50781,0 0.98633,-0.0918 1.43555,-0.27539 0.45313,-0.183594 0.87891,-0.460938 1.27734,-0.832032 v 1.236329 c -0.41406,0.28125 -0.85351,0.492187 -1.31836,0.632812 -0.46093,0.140625 -0.94921,0.210938 -1.46484,0.210938 -1.32422,0 -2.36719,-0.404297 -3.12891,-1.212891 -0.76172,-0.8125 -1.14258,-1.919922 -1.14258,-3.322266 0,-1.40625 0.38086,-2.513672 1.14258,-3.322265 0.76172,-0.8125 1.80469,-1.21875 3.12891,-1.21875 0.52344,0 1.01563,0.07031 1.47656,0.210937 0.46485,0.136719 0.90039,0.34375 1.30664,0.621094 z m 5.96485,1.705078 v 1.019531 c -0.30469,-0.15625 -0.6211,-0.273437 -0.94922,-0.351562 -0.32813,-0.07813 -0.66797,-0.117188 -1.01953,-0.117188 -0.53516,0 -0.93751,0.08203 -1.20704,0.246094 -0.26562,0.164063 -0.39843,0.410156 -0.39843,0.738281 0,0.25 0.0957,0.447266 0.28711,0.591797 0.19141,0.140625 0.57617,0.275391 1.15429,0.404297 l 0.36914,0.08203 c 0.76563,0.164063 1.3086,0.396485 1.62891,0.697266 0.32422,0.296875 0.48633,0.71289 0.48633,1.248047 0,0.609375 -0.24219,1.091796 -0.72656,1.447265 -0.48047,0.355469 -1.14258,0.533204 -1.98633,0.533204 -0.35157,0 -0.71875,-0.03516 -1.10156,-0.105469 -0.37891,-0.06641 -0.7793,-0.167969 -1.20118,-0.304688 v -1.113281 c 0.39844,0.207031 0.79102,0.363281 1.17774,0.46875 0.38672,0.101563 0.76953,0.152344 1.14844,0.152344 0.50781,0 0.89843,-0.08594 1.17187,-0.257813 0.27344,-0.175781 0.41016,-0.421875 0.41016,-0.738281 0,-0.292969 -0.0996,-0.517578 -0.29883,-0.673828 -0.19531,-0.15625 -0.62695,-0.306641 -1.29492,-0.451172 l -0.375,-0.08789 c -0.66797,-0.140625 -1.1504,-0.355468 -1.44727,-0.644531 -0.29687,-0.292969 -0.44531,-0.693359 -0.44531,-1.201172 0,-0.617187 0.21875,-1.09375 0.65625,-1.429687 0.4375,-0.335937 1.05859,-0.503906 1.86328,-0.503906 0.39844,0 0.77344,0.0293 1.125,0.08789 0.35156,0.05859 0.67578,0.146484 0.97266,0.263672 z"
     id="text8"
     aria-label="Upcoming RFCs Queue"
     sodipodi:nodetypes="ccscscsccscscsccccccccscscsccscscscscscccscscsccccssscsccscscssscsssscscscscsscsccsssssccscscscccccssccccccccccccsccsssssccccccscsscscscscsscscccsscscssssssscccscccccccsccccsssccccscscscccccccccccccccscscsccccscscsccccsscsccccscsccccscsccccssssc" />
  <path
     d="m 36.330731,11.2395 c 0.35,-0.3492 0.926,-0.3385 1.289,0.0237 l 7.5,7.5006 c 0.362,0.3623 0.373,0.939 0.024,1.2882 l -13.823,13.823 c -0.349,0.3491 -0.926,0.3385 -1.288,-0.0238 l -7.501,-7.5006 c -0.362,-0.3622 -0.373,-0.939 -0.024,-1.2881 z"
     fill="#ffffff"
     fill-opacity="0.6"
     id="path1" />
  <path
     d="m 67.143086,8.7885221 c 0.525172,0 0.900605,-0.097656 1.126299,-0.292968 0.230034,-0.195312 0.345051,-0.5164918 0.345051,-0.9635393 0,-0.4427072 -0.115017,-0.7595467 -0.345051,-0.9505184 C 68.043691,6.3905247 67.668258,6.2950388 67.143086,6.2950388 h -1.054685 v 2.4934833 z m -1.054685,1.7317669 v 3.678376 H 63.581897 V 4.4786371 h 3.828115 c 1.280379,0 2.217876,0.2148432 2.812493,0.6445297 0.598957,0.4296864 0.898435,1.1089381 0.898435,2.0377552 0,0.6423595 -0.156249,1.169702 -0.468748,1.5820273 -0.308159,0.4123253 -0.774738,0.716144 -1.399736,0.911456 0.342881,0.078125 0.648869,0.2560757 0.917966,0.5338527 0.273437,0.273437 0.549044,0.690102 0.826821,1.249997 l 1.360674,2.76041 H 69.688652 L 68.50376,11.783306 c -0.238715,-0.48611 -0.48177,-0.81814 -0.729165,-0.996091 -0.243055,-0.177951 -0.568575,-0.266926 -0.97656,-0.266926 z M 76.788799,4.4786371 h 6.764305 v 1.8945265 h -4.257801 v 1.8098913 h 4.003896 v 1.8945261 h -4.003896 v 4.121084 h -2.506504 z m 19.756363,9.1861749 c -0.460068,0.238715 -0.939667,0.418836 -1.438798,0.540363 -0.499131,0.121527 -1.019963,0.182291 -1.562496,0.182291 -1.618919,0 -2.901468,-0.451388 -3.847647,-1.354163 -0.946178,-0.907116 -1.419267,-2.135411 -1.419267,-3.6848865 0,-1.5538155 0.473089,-2.782111 1.419267,-3.6848865 0.946179,-0.9071158 2.228728,-1.3606737 3.847647,-1.3606737 0.542533,0 1.063365,0.060764 1.562496,0.1822912 0.499131,0.1215275 0.97873,0.3016486 1.438798,0.5403633 V 7.0372244 C 96.080754,6.7203849 95.622856,6.4881807 95.171468,6.3406116 94.72008,6.1930425 94.244821,6.119258 93.74569,6.119258 c -0.894095,0 -1.597218,0.2864576 -2.109369,0.8593728 -0.512152,0.5729153 -0.768228,1.3628438 -0.768228,2.3697857 0,1.0026015 0.256076,1.7903605 0.768228,2.3632755 0.512151,0.572915 1.215274,0.859373 2.109369,0.859373 0.499131,0 0.97439,-0.07379 1.425778,-0.221354 0.451388,-0.147569 0.909286,-0.379774 1.373694,-0.696613 z M 111.14389,4.4786371 h 6.76431 v 1.8945265 h -4.2578 v 1.8098913 h 4.00389 v 1.8945261 h -4.00389 v 2.226557 h 4.40103 v 1.894527 h -6.90754 z m 14.55456,1.8945265 v 5.9309744 h 0.89844 c 1.0243,0 1.80555,-0.253906 2.34374,-0.761717 0.54253,-0.507811 0.8138,-1.245656 0.8138,-2.2135357 0,-0.9635392 -0.2691,-1.6970443 -0.80729,-2.2005153 -0.53819,-0.5034709 -1.32161,-0.7552064 -2.35025,-0.7552064 z m -2.5065,-1.8945265 h 2.64322 c 1.47569,0 2.57378,0.1063366 3.29426,0.3190097 0.72483,0.2083328 1.34549,0.5642347 1.86198,1.0677056 0.45573,0.4383669 0.79427,0.944008 1.01562,1.5169232 0.22135,0.5729153 0.33203,1.2217852 0.33203,1.9466097 0,0.7335047 -0.11068,1.3888857 -0.33203,1.9661407 -0.22135,0.572915 -0.55989,1.078556 -1.01562,1.516923 -0.52083,0.503471 -1.14583,0.861543 -1.875,1.074216 -0.72917,0.208333 -1.82291,0.3125 -3.28124,0.3125 h -2.64322 z m 14.00768,0 h 2.5065 v 9.7200279 h -2.5065 z m 6.74207,0 h 8.95831 v 1.8945265 h -3.22265 v 7.8255014 h -2.5065 V 6.3731636 h -3.22916 z m 17.63397,1.6406209 c -0.76389,0 -1.35633,0.2821173 -1.77734,0.846352 -0.42101,0.5642347 -0.63151,1.3585036 -0.63151,2.3828065 0,1.0199625 0.2105,1.8120615 0.63151,2.3762965 0.42101,0.564235 1.01345,0.846352 1.77734,0.846352 0.76823,0 1.36284,-0.282117 1.78385,-0.846352 0.42101,-0.564235 0.63151,-1.356333 0.63151,-2.3762965 0,-1.0243029 -0.2105,-1.8185718 -0.63151,-2.3828065 -0.42101,-0.5642347 -1.01562,-0.846352 -1.78385,-0.846352 z m 0,-1.8164017 c 1.56249,0 2.78645,0.4470475 3.67187,1.3411425 0.88541,0.8940949 1.32812,2.1289008 1.32812,3.7044177 0,1.5711765 -0.44271,2.8038125 -1.32812,3.6979075 -0.88542,0.894095 -2.10938,1.341142 -3.67187,1.341142 -1.55815,0 -2.78211,-0.447047 -3.67187,-1.341142 -0.88541,-0.894095 -1.32812,-2.126731 -1.32812,-3.6979075 0,-1.5755169 0.44271,-2.8103228 1.32812,-3.7044177 0.88976,-0.894095 2.11372,-1.3411425 3.67187,-1.3411425 z m 13.39571,4.4856658 c 0.52517,0 0.90061,-0.097656 1.1263,-0.292968 0.23003,-0.195312 0.34505,-0.5164918 0.34505,-0.9635393 0,-0.4427072 -0.11502,-0.7595467 -0.34505,-0.9505184 -0.22569,-0.1909717 -0.60113,-0.2864576 -1.1263,-0.2864576 h -1.05469 v 2.4934833 z m -1.05469,1.7317669 v 3.678376 h -2.5065 V 4.4786371 h 3.82812 c 1.28037,0 2.21787,0.2148432 2.81249,0.6445297 0.59895,0.4296864 0.89843,1.1089381 0.89843,2.0377552 0,0.6423595 -0.15625,1.169702 -0.46875,1.5820273 -0.30815,0.4123253 -0.77473,0.716144 -1.39973,0.911456 0.34288,0.078125 0.64887,0.2560757 0.91796,0.5338527 0.27344,0.273437 0.54905,0.690102 0.82683,1.249997 l 1.36067,2.76041 h -2.66926 l -1.1849,-2.415359 c -0.23871,-0.48611 -0.48177,-0.81814 -0.72916,-0.996091 -0.24305,-0.177951 -0.56857,-0.266926 -0.97656,-0.266926 z m 25.26136,3.854156 h -0.19532 c -1.60155,0 -2.84721,-0.442707 -3.73697,-1.328121 -0.88975,-0.885415 -1.33463,-2.11805 -1.33463,-3.6979075 0,-1.5755169 0.44271,-2.8103228 1.32812,-3.7044177 0.88976,-0.894095 2.11372,-1.3411425 3.67187,-1.3411425 1.57551,0 2.80164,0.4427072 3.67838,1.3281217 0.88107,0.8854144 1.32161,2.1245606 1.32161,3.7174385 0,1.0937475 -0.23438,2.0355845 -0.70313,2.8255135 -0.46441,0.789929 -1.13498,1.384545 -2.01171,1.78385 l 1.95963,2.187494 h -2.38932 z m -0.26693,-8.255187 c -0.76389,0 -1.35633,0.2821173 -1.77734,0.846352 -0.42101,0.5642347 -0.63151,1.3585036 -0.63151,2.3828065 0,1.0416645 0.20616,1.8402735 0.61849,2.3958275 0.41233,0.551214 1.00911,0.826821 1.79036,0.826821 0.76823,0 1.36284,-0.282117 1.78385,-0.846352 0.42101,-0.564235 0.63151,-1.356333 0.63151,-2.3762965 0,-1.0243029 -0.2105,-1.8185718 -0.63151,-2.3828065 -0.42101,-0.5642347 -1.01562,-0.846352 -1.78385,-0.846352 z m 9.8345,-1.6406209 h 2.50651 v 5.8268079 c 0,0.802949 0.13021,1.378035 0.39062,1.725256 0.26476,0.342881 0.69445,0.514322 1.28906,0.514322 0.59896,0 1.02865,-0.171441 1.28906,-0.514322 0.26475,-0.347221 0.39713,-0.922307 0.39713,-1.725256 V 4.4786371 h 2.50651 v 5.8268079 c 0,1.375865 -0.34505,2.400168 -1.03515,3.072909 -0.69011,0.672741 -1.74262,1.009112 -3.15755,1.009112 -1.41059,0 -2.46093,-0.336371 -3.15103,-1.009112 -0.69011,-0.672741 -1.03516,-1.697044 -1.03516,-3.072909 z m 13.7668,0 h 6.76431 v 1.8945265 h -4.2578 v 1.8098913 h 4.00389 v 1.8945261 h -4.00389 v 2.226557 h 4.40103 v 1.894527 h -6.90754 z m 12.04805,0 h 2.50651 v 5.8268079 c 0,0.802949 0.13021,1.378035 0.39062,1.725256 0.26476,0.342881 0.69445,0.514322 1.28906,0.514322 0.59896,0 1.02865,-0.171441 1.28906,-0.514322 0.26475,-0.347221 0.39713,-0.922307 0.39713,-1.725256 V 4.4786371 h 2.50651 v 5.8268079 c 0,1.375865 -0.34505,2.400168 -1.03515,3.072909 -0.69011,0.672741 -1.74262,1.009112 -3.15755,1.009112 -1.41059,0 -2.46093,-0.336371 -3.15103,-1.009112 -0.69011,-0.672741 -1.03516,-1.697044 -1.03516,-3.072909 z m 13.7668,0 h 6.76431 v 1.8945265 h -4.2578 v 1.8098913 h 4.00389 v 1.8945261 h -4.00389 v 2.226557 h 4.40103 v 1.894527 h -6.90754 z"
     id="text7"
     style="font-weight:bold;font-size:13.3333px;font-family:Sans;-inkscape-font-specification:'Sans, Bold';text-align:center;letter-spacing:2.94px;word-spacing:2px;text-anchor:middle;white-space:pre;fill:#ffffff;fill-opacity:1;stroke-width:0"
     aria-label="RFC EDITOR: QUEUE"
     sodipodi:nodetypes="scscsccsccccscsccccccccscccccccccccccsscscssccssssssscccccccccccccccccscsssccsccsscccsccccccccccccccccsssssssssssssscscsscscsccsccccscsccccccccsccssscscscccccssscsssssccscscsccsssssccccccccccccccccscscsccssssscccccccccccccc" />
  <path
     d="m 26.062731,1.0579 c 0.373,-0.3732 0.976,-0.3748 1.348,-0.0035 l 7.687,7.6868 c 0.371,0.3713 0.369,0.9748 -0.004,1.348 l -24.211,24.211 c -0.373,0.3732 -0.977,0.3748 -1.348,0.0035 l -7.687,-7.6868 c -0.371,-0.3713 -0.369,-0.9747 0.004,-1.3479 z"
     fill="#ffffff"
     fill-opacity="0.35"
     id="path2" />
  <path
     d="m 20.869731,23.8382 -0.106,-0.1049 -0.105,0.1049 -10.208,10.1364 -8.53,-8.4713 -0.106,-0.105 -0.106,0.105 -1.389,1.3794 -0.107,0.1064 0.107,0.1064 10.026,9.9556 0.105,0.105 0.106,-0.105 10.207,-10.1363 9.801,9.7323 0.044,0.0436 h 0.062 8.755 0.15 v -0.15 -1.9507 -0.15 h -0.15 -7.88 z"
     fill="#ffd13e"
     stroke="#002d3c"
     stroke-width="0.3"
     id="path3" />
  <path
     d="m 37.733731,29.6978 c -0.33,0.3324 -0.534,0.7708 -0.576,1.2389 l -0.408,4.5504 c -0.053,0.5997 0.426,1.1117 1.023,1.0933 l 4.812,-0.1482 c 0.507,-0.0156 0.989,-0.2255 1.348,-0.5869 l 6.064,-6.1078 -3.265,-3.2812 -2.886,-2.9144 z"
     fill="#ffffff"
     id="path4" />
  <path
     d="m 44.780731,22.6 6.151,6.1957 1.451,-1.4614 c 0.389,-0.3919 0.389,-1.0273 0,-1.4192 l -4.742,-4.7764 c -0.389,-0.392 -1.02,-0.392 -1.409,0 z"
     fill="#ffffff"
     id="path5" />
</svg>
