<?xml version="1.0" encoding="UTF-8" standalone="no"?>
<svg
   width="187.658"
   height="23.857138"
   viewBox="0 0 187.658 23.857138"
   fill="none"
   version="1.1"
   id="svg16"
   sodipodi:docname="logo-mobile.svg"
   inkscape:version="1.4.2 (ebf0e940d0, 2025-05-08)"
   xmlns:inkscape="http://www.inkscape.org/namespaces/inkscape"
   xmlns:sodipodi="http://sodipodi.sourceforge.net/DTD/sodipodi-0.dtd"
   xmlns="http://www.w3.org/2000/svg"
   xmlns:svg="http://www.w3.org/2000/svg">
  <defs
     id="defs20" />
  <sodipodi:namedview
     id="namedview18"
     pagecolor="#ffffff"
     bordercolor="#666666"
     borderopacity="1.0"
     inkscape:pageshadow="2"
     inkscape:pageopacity="0.0"
     inkscape:pagecheckerboard="0"
     showgrid="false"
     fit-margin-top="0"
     fit-margin-left="0"
     fit-margin-right="0"
     fit-margin-bottom="0"
     inkscape:zoom="2.4097744"
     inkscape:cx="165.16069"
     inkscape:cy="3.9422777"
     inkscape:window-width="1193"
     inkscape:window-height="645"
     inkscape:window-x="26"
     inkscape:window-y="23"
     inkscape:window-maximized="0"
     inkscape:current-layer="svg16"
     inkscape:showpageshadow="2"
     inkscape:deskcolor="#d1d1d1" />
  <path
     d="m 41.954991,11.538693 c 0.408057,0 0.699768,-0.07588 0.875131,-0.227635 0.178736,-0.151757 0.268104,-0.401313 0.268104,-0.748667 0,-0.343983 -0.08937,-0.5901662 -0.268104,-0.7385506 C 42.654759,9.6754565 42.363048,9.6012646 41.954991,9.6012646 h -0.819487 v 1.9374284 z m -0.819487,1.345578 v 2.858087 H 39.187958 V 8.1899259 h 2.974434 c 0.99485,0 1.723283,0.1669326 2.185298,0.5007979 0.465388,0.3338647 0.698082,0.8616411 0.698082,1.5833292 0,0.499111 -0.121405,0.908855 -0.364216,1.22923 -0.239439,0.320375 -0.601969,0.556441 -1.087591,0.708198 0.266417,0.0607 0.50417,0.198968 0.713257,0.414803 0.212459,0.212459 0.426605,0.536207 0.642437,0.971244 l 1.05724,2.14483 h -2.074011 l -0.920657,-1.876727 c -0.185481,-0.377706 -0.374334,-0.635693 -0.566559,-0.77396 -0.188853,-0.138267 -0.441781,-0.2074 -0.758784,-0.2074 z m 8.314177,-4.6943451 h 5.255845 v 1.4720416 h -3.308299 v 1.4062795 h 3.111015 v 1.472041 h -3.111015 v 3.20207 h -1.947546 z m 15.350634,7.1376301 c -0.357471,0.18548 -0.730118,0.325433 -1.117941,0.41986 -0.387823,0.09443 -0.792508,0.14164 -1.214055,0.14164 -1.257895,0 -2.254432,-0.350727 -2.98961,-1.052181 -0.735177,-0.704827 -1.102766,-1.659208 -1.102766,-2.863145 0,-1.207311 0.367589,-2.1616926 1.102766,-2.8631458 0.735178,-0.7048264 1.731715,-1.0572396 2.98961,-1.0572396 0.421547,0 0.826232,0.047213 1.214055,0.1416396 0.387823,0.094427 0.76047,0.2343806 1.117941,0.4198612 V 10.17794 C 64.439472,9.9317569 64.083686,9.7513352 63.732959,9.6366747 63.382232,9.5220138 63.012957,9.4646833 62.625134,9.4646833 c -0.694709,0 -1.241033,0.2225766 -1.638973,0.6677297 -0.397941,0.445153 -0.596911,1.058926 -0.596911,1.841317 0,0.779018 0.19897,1.391104 0.596911,1.836257 0.39794,0.445153 0.944264,0.66773 1.638973,0.66773 0.387823,0 0.757098,-0.05733 1.107825,-0.171991 0.350727,-0.114661 0.706513,-0.295083 1.067356,-0.541266 z M 76.143483,8.1899259 h 5.255848 v 1.4720416 h -3.308297 v 1.4062795 h 3.11101 v 1.472041 h -3.11101 v 1.730028 h 3.419587 v 1.472042 H 76.143483 Z M 87.45233,9.6619675 v 4.6083485 h 0.698085 c 0.795878,0 1.402904,-0.197284 1.821079,-0.591852 0.421547,-0.394567 0.63232,-0.967871 0.63232,-1.719911 0,-0.748667 -0.209087,-1.318598 -0.627262,-1.709793 C 89.558377,9.857565 88.949665,9.6619675 88.150415,9.6619675 Z M 85.504789,8.1899259 h 2.053772 c 1.146609,0 1.999819,0.082623 2.55963,0.2478698 0.563188,0.1618739 1.045439,0.4384084 1.446753,0.8296036 0.354098,0.34061 0.617142,0.7334917 0.789133,1.1786447 0.171991,0.445153 0.257987,0.949323 0.257987,1.512509 0,0.569932 -0.086,1.079161 -0.257987,1.527686 -0.171991,0.445153 -0.435035,0.838035 -0.789133,1.178645 -0.404686,0.391195 -0.890309,0.669416 -1.45687,0.834662 -0.56656,0.161875 -1.416398,0.242812 -2.549513,0.242812 h -2.053772 z m 10.883923,0 h 1.947543 v 7.5524321 h -1.947543 z m 5.238568,0 h 6.96058 v 1.4720416 h -2.50399 v 6.0803905 h -1.94754 V 9.6619675 h -2.50905 z m 13.70154,1.2747574 c -0.59353,0 -1.05386,0.2192042 -1.38098,0.6576127 -0.32713,0.438409 -0.49069,1.055553 -0.49069,1.851434 0,0.792508 0.16356,1.407966 0.49069,1.846375 0.32712,0.438408 0.78745,0.657612 1.38098,0.657612 0.59691,0 1.05893,-0.219204 1.38605,-0.657612 0.32712,-0.438409 0.49068,-1.053867 0.49068,-1.846375 0,-0.795881 -0.16356,-1.413025 -0.49068,-1.851434 -0.32712,-0.4384085 -0.78914,-0.6576127 -1.38605,-0.6576127 z m 0,-1.4113387 c 1.21405,0 2.16507,0.3473547 2.85304,1.0420641 0.68796,0.6947082 1.03194,1.6541483 1.03194,2.8783213 0,1.220799 -0.34398,2.178553 -1.03194,2.873262 -0.68797,0.694709 -1.63899,1.042064 -2.85304,1.042064 -1.21068,0 -2.16169,-0.347355 -2.85303,-1.042064 -0.68796,-0.694709 -1.03194,-1.652463 -1.03194,-2.873262 0,-1.224173 0.34398,-2.1836131 1.03194,-2.8783213 0.69134,-0.6947094 1.64235,-1.0420641 2.85303,-1.0420641 z m 10.40843,3.4853484 c 0.40806,0 0.69977,-0.07588 0.87513,-0.227635 0.17873,-0.151757 0.2681,-0.401313 0.2681,-0.748667 0,-0.343983 -0.0894,-0.5901662 -0.2681,-0.7385506 -0.17536,-0.1483839 -0.46707,-0.2225758 -0.87513,-0.2225758 h -0.81949 v 1.9374284 z m -0.81949,1.345578 v 2.858087 h -1.94754 V 8.1899259 h 2.97443 c 0.99485,0 1.72328,0.1669326 2.1853,0.5007979 0.46539,0.3338647 0.69808,0.8616411 0.69808,1.5833292 0,0.499111 -0.12141,0.908855 -0.36422,1.22923 -0.23943,0.320375 -0.60196,0.556441 -1.08759,0.708198 0.26642,0.0607 0.50417,0.198968 0.71326,0.414803 0.21246,0.212459 0.42661,0.536207 0.64244,0.971244 l 1.05724,2.14483 h -2.07401 l -0.92066,-1.876727 c -0.18548,-0.377706 -0.37433,-0.635693 -0.56656,-0.77396 -0.18885,-0.138267 -0.44178,-0.2074 -0.75878,-0.2074 z m 18.68499,2.994667 h -0.15177 c -1.2444,0 -2.21227,-0.343982 -2.90361,-1.031946 -0.69134,-0.687964 -1.03701,-1.645718 -1.03701,-2.873262 0,-1.224173 0.34398,-2.1836131 1.03195,-2.8783213 0.69134,-0.6947094 1.64235,-1.0420641 2.85303,-1.0420641 1.22417,0 2.17686,0.3439823 2.85809,1.0319468 0.68459,0.6879644 1.02689,1.6507776 1.02689,2.8884386 0,0.849837 -0.18211,1.581642 -0.54633,2.195415 -0.36085,0.613772 -0.88188,1.075787 -1.56309,1.386046 l 1.52262,1.699676 h -1.85649 z m -0.20741,-6.4142547 c -0.59354,0 -1.05387,0.2192042 -1.38099,0.6576127 -0.32712,0.438409 -0.49068,1.055553 -0.49068,1.851434 0,0.809369 0.16019,1.429886 0.48057,1.86155 0.32037,0.428291 0.78407,0.642437 1.3911,0.642437 0.59691,0 1.05893,-0.219204 1.38605,-0.657612 0.32712,-0.438409 0.49068,-1.053867 0.49068,-1.846375 0,-0.795881 -0.16356,-1.413025 -0.49068,-1.851434 -0.32712,-0.4384085 -0.78914,-0.6576127 -1.38605,-0.6576127 z m 7.64138,-1.2747574 h 1.94755 v 4.5274121 c 0,0.623889 0.10117,1.070728 0.30351,1.340518 0.20572,0.266418 0.53959,0.399627 1.0016,0.399627 0.46539,0 0.79925,-0.133209 1.00159,-0.399627 0.20571,-0.26979 0.30857,-0.716629 0.30857,-1.340518 V 8.1899259 h 1.94755 v 4.5274121 c 0,1.069043 -0.2681,1.864923 -0.80431,2.387641 -0.53621,0.522718 -1.35401,0.784077 -2.4534,0.784077 -1.09603,0 -1.91214,-0.261359 -2.44835,-0.784077 -0.53621,-0.522718 -0.80431,-1.318598 -0.80431,-2.387641 z m 10.69676,0 h 5.25585 v 1.4720416 h -3.3083 v 1.4062795 h 3.11101 v 1.472041 h -3.11101 v 1.730028 h 3.41959 v 1.472042 h -5.36714 z m 9.3613,0 h 1.94755 v 4.5274121 c 0,0.623889 0.10117,1.070728 0.30351,1.340518 0.20572,0.266418 0.53959,0.399627 1.0016,0.399627 0.46539,0 0.79925,-0.133209 1.00159,-0.399627 0.20571,-0.26979 0.30857,-0.716629 0.30857,-1.340518 V 8.1899259 h 1.94755 v 4.5274121 c 0,1.069043 -0.2681,1.864923 -0.80431,2.387641 -0.53621,0.522718 -1.35401,0.784077 -2.4534,0.784077 -1.09603,0 -1.91214,-0.261359 -2.44835,-0.784077 -0.53621,-0.522718 -0.80431,-1.318598 -0.80431,-2.387641 z m 10.69676,0 h 5.25585 v 1.4720416 h -3.3083 v 1.4062795 h 3.11101 v 1.472041 h -3.11101 v 1.730028 h 3.41959 v 1.472042 h -5.36714 z"
     id="text7"
     style="font-weight:bold;font-size:13.3333px;font-family:Sans;-inkscape-font-specification:'Sans, Bold';text-align:center;letter-spacing:2.94px;word-spacing:2px;text-anchor:middle;white-space:pre;fill:#ffffff;fill-opacity:1;stroke-width:0"
     aria-label="RFC EDITOR: QUEUE"
     sodipodi:nodetypes="scscsccsccccscsccccccccscccccccccccccsscscssccssssssscccccccccccccccccscsssccsccsscccsccccccccccccccccsssssssssssssscscsscscsccsccccscsccccccccsccssscscscccccssscsssssccscscsccsssssccccccccccccccccscscsccssssscccccccccccccc" />
  <path
     d="m 22.678082,6.7763171 c 0.2164,-0.22614 0.574,-0.21926 0.7986,0.01537 l 4.6504,4.8580499 c 0.2246,0.2346 0.2312,0.6081 0.0147,0.8343 l -8.5702,8.9529 c -0.2165,0.2261 -0.5741,0.2192 -0.7987,-0.0154 l -4.6504,-4.858 c -0.2246,-0.2346 -0.2312,-0.6082 -0.0147,-0.8343 z"
     fill="#ffffff"
     fill-opacity="0.6"
     id="path4" />
  <path
     d="m 16.311482,0.18194709 c 0.2314,-0.24171 0.6055,-0.24272 0.8357,-0.00227 l 4.7658,4.97861001 c 0.2302,0.24045 0.2292,0.63132 -0.0021,0.87303 L 6.8999823,21.712337 c -0.23138,0.2417 -0.60554,0.2428 -0.83572,0.0023 l -4.76583,-4.9786 c -0.23017,-0.2405 -0.2292,-0.6313 0.00217,-0.873 z"
     fill="#ffffff"
     fill-opacity="0.35"
     id="path6" />
  <path
     d="m 13.134482,14.900937 -0.108,-0.112 -0.108,0.112 -6.2860797,6.521 -5.24652,-5.4426 -0.10799,-0.112 -0.108,0.112 -0.86119404,0.8934 -0.100351,0.1041 0.100351,0.1041 6.21570404,6.4481 0.108,0.112 0.10799,-0.112 6.2860897,-6.5211 6.0338,6.2594 0.0443,0.0459 h 0.0637 5.4284 0.15 v -0.15 -1.2635 -0.15 h -0.15 -4.8602 z"
     fill="#ffd13e"
     stroke="#002d3c"
     stroke-width="0.3"
     id="path8" />
  <path
     d="m 23.547382,18.731237 c -0.2045,0.2152 -0.3308,0.4992 -0.3568,0.8024 l -0.2528,2.9472 c -0.0333,0.3884 0.2637,0.72 0.6342,0.7081 l 2.9831,-0.096 c 0.3144,-0.0101 0.6134,-0.146 0.8358,-0.3801 l 3.7597,-3.9559 -2.0244,-2.1252 -1.7894,-1.8876 z"
     fill="#ffffff"
     id="path10" />
  <path
     d="m 27.916582,14.134037 3.8138,4.0129 0.8995,-0.9465 c 0.2413,-0.2538 0.2413,-0.6654 0,-0.9192 l -2.9401,-3.0936 c -0.2413,-0.2539 -0.6324,-0.2539 -0.8737,0 z"
     fill="#ffffff"
     id="path12" />
</svg>
