<?xml version="1.0" encoding="UTF-8" standalone="no"?>
<svg
   width="264.42599"
   height="37.367729"
   viewBox="0 0 264.426 37.367729"
   fill="none"
   version="1.1"
   id="svg7"
   sodipodi:docname="logo-desktop.svg"
   inkscape:version="1.4.2 (ebf0e940d0, 2025-05-08)"
   xmlns:inkscape="http://www.inkscape.org/namespaces/inkscape"
   xmlns:sodipodi="http://sodipodi.sourceforge.net/DTD/sodipodi-0.dtd"
   xmlns="http://www.w3.org/2000/svg"
   xmlns:svg="http://www.w3.org/2000/svg">
  <defs
     id="defs7">
    <rect
       x="61.231743"
       y="54.132408"
       width="170.38399"
       height="47.328884"
       id="rect8" />
  </defs>
  <sodipodi:namedview
     id="namedview7"
     pagecolor="#ffffff"
     bordercolor="#000000"
     borderopacity="0.25"
     inkscape:showpageshadow="2"
     inkscape:pageopacity="0.0"
     inkscape:pagecheckerboard="0"
     inkscape:deskcolor="#d1d1d1"
     inkscape:zoom="2.3904449"
     inkscape:cx="91.823912"
     inkscape:cy="63.377324"
     inkscape:window-width="1920"
     inkscape:window-height="987"
     inkscape:window-x="0"
     inkscape:window-y="0"
     inkscape:window-maximized="1"
     inkscape:current-layer="svg7" />
  <path
     style="font-size:12px;font-family:Sans;-inkscape-font-specification:'Sans, Normal';text-align:center;letter-spacing:0px;word-spacing:0px;text-anchor:middle;white-space:pre;fill:#ffffff;fill-opacity:1;stroke-width:0"
     d="m 63.257053,23.016073 h 1.189453 v 5.314453 q 0,1.40625 0.509765,2.027344 0.509766,0.615234 1.652344,0.615234 1.136719,0 1.646484,-0.615234 0.509766,-0.621094 0.509766,-2.027344 v -5.314453 h 1.189453 v 5.460937 q 0,1.710938 -0.849609,2.583985 -0.84375,0.873047 -2.496094,0.873047 -1.658203,0 -2.507812,-0.873047 -0.84375,-0.873047 -0.84375,-2.583985 z m 9.914062,7.763672 v 3.480468 H 72.087131 V 25.20162 h 1.083984 v 0.996093 q 0.339844,-0.585937 0.855469,-0.867187 0.521484,-0.287109 1.242187,-0.287109 1.195313,0 1.939453,0.949218 0.75,0.949219 0.75,2.496094 0,1.546875 -0.75,2.496094 -0.74414,0.949219 -1.939453,0.949219 -0.720703,0 -1.242187,-0.28125 -0.515625,-0.28711 -0.855469,-0.873047 z m 3.667969,-2.291016 q 0,-1.189453 -0.492188,-1.863281 -0.486328,-0.679688 -1.341797,-0.679688 -0.855468,0 -1.347656,0.679688 -0.486328,0.673828 -0.486328,1.863281 0,1.189453 0.486328,1.869141 0.492188,0.673828 1.347656,0.673828 0.855469,0 1.341797,-0.673828 0.492188,-0.679688 0.492188,-1.869141 z m 7.628906,-3.035156 v 1.007812 q -0.457031,-0.251953 -0.919922,-0.375 -0.457031,-0.128906 -0.925781,-0.128906 -1.048828,0 -1.628906,0.667969 -0.580078,0.662109 -0.580078,1.863281 0,1.201172 0.580078,1.869141 0.580078,0.662109 1.628906,0.662109 0.46875,0 0.925781,-0.123047 0.462891,-0.128906 0.919922,-0.380859 v 0.996094 q -0.451172,0.210937 -0.9375,0.316406 -0.480469,0.105469 -1.025391,0.105469 -1.482421,0 -2.355468,-0.931641 -0.873047,-0.931641 -0.873047,-2.513672 0,-1.605469 0.878906,-2.525391 0.884766,-0.919921 2.419922,-0.919921 0.498047,0 0.972656,0.105468 0.47461,0.09961 0.919922,0.304688 z m 4.417972,0.503906 q -0.86719,0 -1.3711,0.679688 -0.5039,0.673828 -0.5039,1.851562 0,1.177734 0.49804,1.857422 0.50391,0.673828 1.37696,0.673828 0.86133,0 1.36523,-0.679687 0.50391,-0.679688 0.50391,-1.851563 0,-1.166016 -0.50391,-1.845703 -0.5039,-0.685547 -1.36523,-0.685547 z m 0,-0.914062 q 1.40625,0 2.20898,0.914062 0.80274,0.914063 0.80274,2.53125 0,1.611328 -0.80274,2.53125 -0.80273,0.914063 -2.20898,0.914063 -1.41211,0 -2.21485,-0.914063 -0.79687,-0.919922 -0.79687,-2.53125 0,-1.617187 0.79687,-2.53125 0.80274,-0.914062 2.21485,-0.914062 z m 9.9082,1.417968 q 0.4043,-0.726562 0.9668,-1.072265 0.562498,-0.345703 1.324218,-0.345703 1.02539,0 1.58203,0.720703 0.55664,0.714843 0.55664,2.039062 v 3.960938 h -1.08399 v -3.925782 q 0,-0.943359 -0.33398,-1.40039 -0.33399,-0.457031 -1.01953,-0.457031 -0.837888,0 -1.324218,0.55664 -0.48633,0.556641 -0.48633,1.517578 v 3.708985 h -1.08398 v -3.925782 q 0,-0.949218 -0.33399,-1.40039 -0.33398,-0.457031 -1.03125,-0.457031 -0.82617,0 -1.3125,0.5625 -0.48633,0.55664 -0.48633,1.511718 v 3.708985 h -1.08398 v -6.5625 h 1.08398 v 1.019531 q 0.36914,-0.603516 0.88477,-0.890625 0.51562,-0.287109 1.22461,-0.287109 0.71484,0 1.21289,0.363281 0.50391,0.363281 0.74414,1.054687 z m 6.580078,-1.259765 h 1.07812 v 6.5625 h -1.07812 z m 0,-2.554688 h 1.07812 v 1.365235 h -1.07812 z m 8.78906,5.15625 v 3.960938 h -1.07812 v -3.925782 q 0,-0.93164 -0.36329,-1.394531 -0.36328,-0.46289 -1.08984,-0.46289 -0.87305,0 -1.37695,0.55664 -0.50391,0.556641 -0.50391,1.517578 v 3.708985 h -1.08398 v -6.5625 h 1.08398 v 1.019531 q 0.38672,-0.591797 0.9082,-0.884766 0.52735,-0.292968 1.2129,-0.292968 1.13085,0 1.71093,0.703125 0.58008,0.697265 0.58008,2.05664 z m 6.46875,0.603516 q 0,-1.171875 -0.48633,-1.816406 -0.48047,-0.644532 -1.35351,-0.644532 -0.86719,0 -1.35352,0.644532 -0.48047,0.644531 -0.48047,1.816406 0,1.166015 0.48047,1.810547 0.48633,0.644531 1.35352,0.644531 0.87304,0 1.35351,-0.644531 0.48633,-0.644532 0.48633,-1.810547 z m 1.07813,2.542969 q 0,1.675781 -0.74415,2.490234 -0.74414,0.820312 -2.27929,0.820312 -0.56836,0 -1.07227,-0.08789 -0.5039,-0.08203 -0.97851,-0.257813 v -1.048828 q 0.47461,0.257813 0.9375,0.38086 0.46289,0.123046 0.94336,0.123046 1.06054,0 1.58789,-0.55664 0.52734,-0.550781 0.52734,-1.669922 v -0.533203 q -0.33398,0.580078 -0.85547,0.867187 -0.52148,0.28711 -1.24805,0.28711 -1.20703,0 -1.94531,-0.919922 -0.73828,-0.919922 -0.73828,-2.4375 0,-1.523438 0.73828,-2.44336 0.73828,-0.919921 1.94531,-0.919921 0.72657,0 1.24805,0.287109 0.52149,0.287109 0.85547,0.867187 V 25.20162 h 1.07813 z m 10.23046,-3.28711 q 0.38086,0.128906 0.73829,0.550781 0.36328,0.421875 0.72656,1.160157 l 1.20117,2.390625 h -1.27148 l -1.11915,-2.244141 q -0.43359,-0.878906 -0.84375,-1.166016 -0.40429,-0.287109 -1.10742,-0.287109 h -1.28906 v 3.697266 h -1.18359 v -8.748047 h 2.67187 q 1.5,0 2.23828,0.626953 0.73828,0.626953 0.73828,1.892578 0,0.826172 -0.38671,1.371094 -0.38086,0.544922 -1.11329,0.755859 z m -2.96484,-3.673828 v 3.105469 h 1.48828 q 0.85547,0 1.28906,-0.392578 0.43946,-0.398438 0.43946,-1.166016 0,-0.767578 -0.43946,-1.154297 -0.43359,-0.392578 -1.28906,-0.392578 z m 7.1543,-0.972656 h 5.02734 v 0.996094 h -3.84375 v 2.578125 h 3.46875 v 0.996093 h -3.46875 v 4.177735 h -1.18359 z m 13.45312,0.673828 v 1.248047 q -0.59765,-0.556641 -1.27734,-0.832031 -0.67383,-0.275391 -1.43555,-0.275391 -1.5,0 -2.29687,0.919922 -0.79688,0.914062 -0.79688,2.648437 0,1.728516 0.79688,2.648438 0.79687,0.914062 2.29687,0.914062 0.76172,0 1.43555,-0.27539 0.67969,-0.275391 1.27734,-0.832032 v 1.236329 q -0.62109,0.421875 -1.31836,0.632812 -0.6914,0.210938 -1.46484,0.210938 -1.98633,0 -3.12891,-1.212891 -1.14258,-1.21875 -1.14258,-3.322266 0,-2.109375 1.14258,-3.322265 1.14258,-1.21875 3.12891,-1.21875 0.78516,0 1.47656,0.210937 0.69727,0.205078 1.30664,0.621094 z m 5.96485,1.705078 v 1.019531 q -0.45704,-0.234375 -0.94922,-0.351562 -0.49219,-0.117188 -1.01953,-0.117188 -0.80274,0 -1.20704,0.246094 -0.39843,0.246094 -0.39843,0.738281 0,0.375 0.28711,0.591797 0.28711,0.210938 1.15429,0.404297 l 0.36914,0.08203 q 1.14844,0.246094 1.62891,0.697266 0.48633,0.445312 0.48633,1.248047 0,0.914062 -0.72656,1.447265 -0.72071,0.533204 -1.98633,0.533204 -0.52735,0 -1.10156,-0.105469 -0.56836,-0.09961 -1.20118,-0.304688 v -1.113281 q 0.59766,0.310547 1.17774,0.46875 0.58008,0.152344 1.14844,0.152344 0.76171,0 1.17187,-0.257813 0.41016,-0.263672 0.41016,-0.738281 0,-0.439453 -0.29883,-0.673828 -0.29297,-0.234375 -1.29492,-0.451172 l -0.375,-0.08789 q -1.00196,-0.210937 -1.44727,-0.644531 -0.44531,-0.439453 -0.44531,-1.201172 0,-0.925781 0.65625,-1.429687 0.65625,-0.503906 1.86328,-0.503906 0.59766,0 1.125,0.08789 0.52734,0.08789 0.97266,0.263672 z m 9.48046,-1.576172 q -1.28906,0 -2.05078,0.960938 -0.75586,0.960937 -0.75586,2.61914 0,1.652344 0.75586,2.613282 0.76172,0.960937 2.05078,0.960937 1.28907,0 2.03907,-0.960937 0.75586,-0.960938 0.75586,-2.613282 0,-1.658203 -0.75586,-2.61914 -0.75,-0.960938 -2.03907,-0.960938 z m 1.65821,7.78711 1.55859,1.705078 h -1.42969 l -1.29492,-1.400391 q -0.19336,0.01172 -0.29883,0.01758 -0.0996,0.0059 -0.19336,0.0059 -1.8457,0 -2.95312,-1.230469 -1.10156,-1.236328 -1.10156,-3.304688 0,-2.074218 1.10156,-3.304687 1.10742,-1.236328 2.95312,-1.236328 1.83985,0 2.94141,1.236328 1.10156,1.230469 1.10156,3.304687 0,1.523438 -0.61523,2.607422 -0.60938,1.083985 -1.76953,1.59961 z m 4.07812,-2.431641 V 25.20162 h 1.07813 v 3.93164 q 0,0.931641 0.36328,1.400391 0.36328,0.462891 1.08984,0.462891 0.87305,0 1.37696,-0.556641 0.50976,-0.556641 0.50976,-1.517578 V 25.20162 h 1.07813 v 6.5625 h -1.07813 v -1.007813 q -0.39258,0.597656 -0.91406,0.890625 -0.51563,0.28711 -1.20117,0.28711 -1.13086,0 -1.7168,-0.703125 -0.58594,-0.703125 -0.58594,-2.056641 z m 2.71289,-4.130859 z m 10.61719,3.169921 v 0.527344 h -4.95703 q 0.0703,1.113281 0.66797,1.699219 0.60351,0.580078 1.67578,0.580078 0.62109,0 1.20117,-0.152344 0.58594,-0.152343 1.16016,-0.457031 v 1.019531 q -0.58008,0.246094 -1.18946,0.375 -0.60937,0.128907 -1.23632,0.128907 -1.57032,0 -2.49024,-0.914063 -0.91406,-0.914062 -0.91406,-2.472656 0,-1.611328 0.86719,-2.554688 0.87304,-0.949218 2.34961,-0.949218 1.32422,0 2.09179,0.855468 0.77344,0.84961 0.77344,2.314453 z m -1.07812,-0.316406 q -0.0117,-0.884765 -0.49805,-1.412109 -0.48047,-0.527344 -1.27734,-0.527344 -0.90235,0 -1.44727,0.509766 -0.53906,0.509765 -0.62109,1.435547 z m 2.73632,1.277344 V 25.20162 h 1.07813 v 3.93164 q 0,0.931641 0.36328,1.400391 0.36328,0.462891 1.08984,0.462891 0.87305,0 1.37696,-0.556641 0.50976,-0.556641 0.50976,-1.517578 V 25.20162 h 1.07813 v 6.5625 h -1.07813 v -1.007813 q -0.39258,0.597656 -0.91406,0.890625 -0.51562,0.28711 -1.20117,0.28711 -1.13086,0 -1.7168,-0.703125 -0.58594,-0.703125 -0.58594,-2.056641 z m 2.71289,-4.130859 z m 10.61719,3.169921 v 0.527344 h -4.95703 q 0.0703,1.113281 0.66797,1.699219 0.60352,0.580078 1.67578,0.580078 0.62109,0 1.20117,-0.152344 0.58594,-0.152343 1.16016,-0.457031 v 1.019531 q -0.58008,0.246094 -1.18945,0.375 -0.60938,0.128907 -1.23633,0.128907 -1.57031,0 -2.49024,-0.914063 -0.91406,-0.914062 -0.91406,-2.472656 0,-1.611328 0.86719,-2.554688 0.87305,-0.949218 2.34961,-0.949218 1.32422,0 2.09179,0.855468 0.77344,0.84961 0.77344,2.314453 z m -1.07812,-0.316406 q -0.0117,-0.884765 -0.49805,-1.412109 -0.48047,-0.527344 -1.27734,-0.527344 -0.90235,0 -1.44727,0.509766 -0.53906,0.509765 -0.62109,1.435547 z"
     id="text8"
     aria-label="Upcoming RFCs Queue" />
  <path
     d="m 36.330731,11.2395 c 0.35,-0.3492 0.926,-0.3385 1.289,0.0237 l 7.5,7.5006 c 0.362,0.3623 0.373,0.939 0.024,1.2882 l -13.823,13.823 c -0.349,0.3491 -0.926,0.3385 -1.288,-0.0238 l -7.501,-7.5006 c -0.362,-0.3622 -0.373,-0.939 -0.024,-1.2881 z"
     fill="#ffffff"
     fill-opacity="0.6"
     id="path1" />
  <path
     d="m 67.143086,8.7885221 q 0.787758,0 1.126299,-0.292968 0.345051,-0.292968 0.345051,-0.9635393 0,-0.6640608 -0.345051,-0.9505184 -0.338541,-0.2864576 -1.126299,-0.2864576 h -1.054685 v 2.4934833 z m -1.054685,1.7317669 v 3.678376 H 63.581897 V 4.4786371 h 3.828115 q 1.920568,0 2.812493,0.6445297 0.898435,0.6445296 0.898435,2.0377552 0,0.9635393 -0.468748,1.5820273 -0.462239,0.618488 -1.399736,0.911456 0.514321,0.1171872 0.917966,0.5338527 0.410155,0.410155 0.826821,1.249997 l 1.360674,2.76041 H 69.688652 L 68.50376,11.783306 q -0.358072,-0.729165 -0.729165,-0.996091 -0.364583,-0.266926 -0.97656,-0.266926 z M 76.788799,4.4786371 h 6.764305 v 1.8945265 h -4.257801 v 1.8098913 h 4.003896 v 1.8945261 h -4.003896 v 4.121084 h -2.506504 z m 19.756363,9.1861749 q -0.690102,0.358072 -1.438798,0.540363 -0.748696,0.182291 -1.562496,0.182291 -2.428379,0 -3.847647,-1.354163 -1.419267,-1.360674 -1.419267,-3.6848865 0,-2.3307233 1.419267,-3.6848865 1.419268,-1.3606737 3.847647,-1.3606737 0.8138,0 1.562496,0.1822912 0.748696,0.1822913 1.438798,0.5403633 V 7.0372244 Q 95.84855,6.5619652 95.171468,6.3406116 94.494386,6.119258 93.74569,6.119258 q -1.341142,0 -2.109369,0.8593728 -0.768228,0.8593729 -0.768228,2.3697857 0,1.5039025 0.768228,2.3632755 0.768227,0.859373 2.109369,0.859373 0.748696,0 1.425778,-0.221354 0.677082,-0.221354 1.373694,-0.696613 z M 111.14389,4.4786371 h 6.76431 v 1.8945265 h -4.2578 v 1.8098913 h 4.00389 v 1.8945261 h -4.00389 v 2.226557 h 4.40103 v 1.894527 h -6.90754 z m 14.55456,1.8945265 v 5.9309744 h 0.89844 q 1.53645,0 2.34374,-0.761717 0.8138,-0.761716 0.8138,-2.2135357 0,-1.4453088 -0.80729,-2.2005153 -0.80729,-0.7552064 -2.35025,-0.7552064 z m -2.5065,-1.8945265 h 2.64322 q 2.21354,0 3.29426,0.3190097 1.08724,0.3124992 1.86198,1.0677056 0.68359,0.6575504 1.01562,1.5169232 0.33203,0.8593729 0.33203,1.9466097 0,1.1002577 -0.33203,1.9661407 -0.33203,0.859373 -1.01562,1.516923 -0.78125,0.755207 -1.875,1.074216 -1.09375,0.3125 -3.28124,0.3125 h -2.64322 z m 14.00768,0 h 2.5065 v 9.7200279 h -2.5065 z m 6.74207,0 h 8.95831 v 1.8945265 h -3.22265 v 7.8255014 h -2.5065 V 6.3731636 h -3.22916 z m 17.63397,1.6406209 q -1.14583,0 -1.77734,0.846352 -0.63151,0.8463521 -0.63151,2.3828065 0,1.5299445 0.63151,2.3762965 0.63151,0.846352 1.77734,0.846352 1.15234,0 1.78385,-0.846352 0.63151,-0.846352 0.63151,-2.3762965 0,-1.5364544 -0.63151,-2.3828065 -0.63151,-0.846352 -1.78385,-0.846352 z m 0,-1.8164017 q 2.34374,0 3.67187,1.3411425 1.32812,1.3411424 1.32812,3.7044177 0,2.3567645 -1.32812,3.6979075 -1.32813,1.341142 -3.67187,1.341142 -2.33723,0 -3.67187,-1.341142 -1.32812,-1.341143 -1.32812,-3.6979075 0,-2.3632753 1.32812,-3.7044177 1.33464,-1.3411425 3.67187,-1.3411425 z m 13.39571,4.4856658 q 0.78776,0 1.1263,-0.292968 0.34505,-0.292968 0.34505,-0.9635393 0,-0.6640608 -0.34505,-0.9505184 -0.33854,-0.2864576 -1.1263,-0.2864576 h -1.05469 v 2.4934833 z m -1.05469,1.7317669 v 3.678376 h -2.5065 V 4.4786371 h 3.82812 q 1.92056,0 2.81249,0.6445297 0.89843,0.6445296 0.89843,2.0377552 0,0.9635393 -0.46875,1.5820273 -0.46223,0.618488 -1.39973,0.911456 0.51432,0.1171872 0.91796,0.5338527 0.41016,0.410155 0.82683,1.249997 l 1.36067,2.76041 h -2.66926 l -1.1849,-2.415359 q -0.35807,-0.729165 -0.72916,-0.996091 -0.36458,-0.266926 -0.97656,-0.266926 z m 10.96733,-3.6132726 h 2.35025 v 2.5195249 h -2.35025 z m 0,4.7721236 h 2.35025 v 2.519525 h -2.35025 z m 22.29403,2.695305 h -0.19532 q -2.40233,0 -3.73697,-1.328121 -1.33463,-1.328122 -1.33463,-3.6979075 0,-2.3632753 1.32812,-3.7044177 1.33464,-1.3411425 3.67187,-1.3411425 2.36327,0 3.67838,1.3281217 1.32161,1.3281216 1.32161,3.7174385 0,1.6406205 -0.70313,2.8255135 -0.69661,1.184893 -2.01171,1.78385 l 1.95963,2.187494 h -2.38932 z m -0.26693,-8.255187 q -1.14583,0 -1.77734,0.846352 -0.63151,0.8463521 -0.63151,2.3828065 0,1.5624965 0.61849,2.3958275 0.61849,0.826821 1.79036,0.826821 1.15234,0 1.78385,-0.846352 0.63151,-0.846352 0.63151,-2.3762965 0,-1.5364544 -0.63151,-2.3828065 -0.63151,-0.846352 -1.78385,-0.846352 z m 9.8345,-1.6406209 h 2.50651 v 5.8268079 q 0,1.204424 0.39062,1.725256 0.39714,0.514322 1.28906,0.514322 0.89844,0 1.28906,-0.514322 0.39713,-0.520832 0.39713,-1.725256 V 4.4786371 h 2.50651 v 5.8268079 q 0,2.063797 -1.03515,3.072909 -1.03516,1.009112 -3.15755,1.009112 -2.11588,0 -3.15103,-1.009112 -1.03516,-1.009112 -1.03516,-3.072909 z m 13.7668,0 h 6.76431 v 1.8945265 h -4.2578 v 1.8098913 h 4.00389 v 1.8945261 h -4.00389 v 2.226557 h 4.40103 v 1.894527 h -6.90754 z m 12.04805,0 h 2.50651 v 5.8268079 q 0,1.204424 0.39062,1.725256 0.39714,0.514322 1.28906,0.514322 0.89844,0 1.28906,-0.514322 0.39713,-0.520832 0.39713,-1.725256 V 4.4786371 h 2.50651 v 5.8268079 q 0,2.063797 -1.03515,3.072909 -1.03516,1.009112 -3.15755,1.009112 -2.11588,0 -3.15103,-1.009112 -1.03516,-1.009112 -1.03516,-3.072909 z m 13.7668,0 h 6.76431 v 1.8945265 h -4.2578 v 1.8098913 h 4.00389 v 1.8945261 h -4.00389 v 2.226557 h 4.40103 v 1.894527 h -6.90754 z"
     id="text7"
     style="font-weight:bold;font-size:13.3333px;font-family:Sans;-inkscape-font-specification:'Sans, Bold';text-align:center;letter-spacing:2.94px;word-spacing:2px;text-anchor:middle;white-space:pre;fill:#ffffff;fill-opacity:1;stroke-width:0"
     aria-label="RFC EDITOR: QUEUE" />
  <path
     d="m 26.062731,1.0579 c 0.373,-0.3732 0.976,-0.3748 1.348,-0.0035 l 7.687,7.6868 c 0.371,0.3713 0.369,0.9748 -0.004,1.348 l -24.211,24.211 c -0.373,0.3732 -0.977,0.3748 -1.348,0.0035 l -7.687,-7.6868 c -0.371,-0.3713 -0.369,-0.9747 0.004,-1.3479 z"
     fill="#ffffff"
     fill-opacity="0.35"
     id="path2" />
  <path
     d="m 20.869731,23.8382 -0.106,-0.1049 -0.105,0.1049 -10.208,10.1364 -8.53,-8.4713 -0.106,-0.105 -0.106,0.105 -1.389,1.3794 -0.107,0.1064 0.107,0.1064 10.026,9.9556 0.105,0.105 0.106,-0.105 10.207,-10.1363 9.801,9.7323 0.044,0.0436 h 0.062 8.755 0.15 v -0.15 -1.9507 -0.15 h -0.15 -7.88 z"
     fill="#ffd13e"
     stroke="#002d3c"
     stroke-width="0.3"
     id="path3" />
  <path
     d="m 37.733731,29.6978 c -0.33,0.3324 -0.534,0.7708 -0.576,1.2389 l -0.408,4.5504 c -0.053,0.5997 0.426,1.1117 1.023,1.0933 l 4.812,-0.1482 c 0.507,-0.0156 0.989,-0.2255 1.348,-0.5869 l 6.064,-6.1078 -3.265,-3.2812 -2.886,-2.9144 z"
     fill="#ffffff"
     id="path4" />
  <path
     d="m 44.780731,22.6 6.151,6.1957 1.451,-1.4614 c 0.389,-0.3919 0.389,-1.0273 0,-1.4192 l -4.742,-4.7764 c -0.389,-0.392 -1.02,-0.392 -1.409,0 z"
     fill="#ffffff"
     id="path5" />
</svg>
